<?xml version="1.0" encoding="UTF-8" standalone="no"?>

<svg
   width="68.933258mm"
   height="59.162281mm"
   viewBox="0 0 68.933258 59.162281"
   version="1.1"
   id="svg5"
   inkscape:version="1.2.1 (9c6d41e410, 2022-07-14)"
   sodipodi:docname="logo.svg"
   xml:space="preserve"
   xmlns:inkscape="http://www.inkscape.org/namespaces/inkscape"
   xmlns:sodipodi="http://sodipodi.sourceforge.net/DTD/sodipodi-0.dtd"
   xmlns="http://www.w3.org/2000/svg"
   xmlns:svg="http://www.w3.org/2000/svg"><sodipodi:namedview
     id="namedview7"
     pagecolor="#ffffff"
     bordercolor="#000000"
     borderopacity="0.25"
     inkscape:showpageshadow="2"
     inkscape:pageopacity="0.0"
     inkscape:pagecheckerboard="0"
     inkscape:deskcolor="#d1d1d1"
     inkscape:document-units="mm"
     showgrid="false"
     inkscape:zoom="1.0129245"
     inkscape:cx="14.808606"
     inkscape:cy="315.42331"
     inkscape:window-width="1920"
     inkscape:window-height="991"
     inkscape:window-x="-9"
     inkscape:window-y="-9"
     inkscape:window-maximized="1"
     inkscape:current-layer="g950" /><defs
     id="defs2"><filter
       style="color-interpolation-filters:sRGB"
       id="filter869"
       inkscape:label="szűrő0"
       x="-0.27301258"
       y="-0.15232956"
       width="1.5460252"
       height="1.3046591"><feGaussianBlur
         stdDeviation="4.0358744394618835"
         id="feGaussianBlur873" /><feColorMatrix
         id="feColorMatrix875"
         values="1 0 0 0 0 0 1 0 0 0 0 0 1 0 0 0 0 0 20 -10" /><feColorMatrix
         id="feColorMatrix877"
         values="1 0 0 0 0 0 1 0 0 0 0 0 1 0 0 0 0 0 20 -10" /><feGaussianBlur
         stdDeviation="0.10000000000000009"
         id="feGaussianBlur911" /></filter></defs><g
     inkscape:label="Réteg 1"
     inkscape:groupmode="layer"
     id="layer1"
     transform="translate(-1.999878,-2.029333)"><g
       id="g950"
       transform="translate(-76.231505,-75.427316)"
       style="fill:#000000;stroke:#ffffff"><path
         id="path999"
         style="color:#000000;fill:#ffffff;stroke:none;stroke-width:4;stroke-dasharray:none"
         d="m 99.997496,77.97238 c -1.298168,-0.01906 -2.570385,0.279486 -3.717602,0.845943 -2.622214,1.294762 -4.527521,3.866673 -4.519621,7.47448 0.0043,1.974964 0.381521,3.221238 1.30483,4.478796 0.915898,1.247464 2.526522,2.535328 5.146456,3.91759 1.1834,0.624355 2.131451,1.109579 3.001881,1.713074 0.88533,0.613827 1.71292,1.422986 2.23604,2.484603 1.00533,2.040214 0.88785,4.139754 0.95705,7.833634 0.072,3.83798 0.22946,6.09089 -0.7674,8.24445 -0.5163,1.11539 -1.35383,1.98728 -2.27738,2.65049 -0.90893,0.6527 -1.907981,1.16861 -3.132621,1.80454 -1.562145,0.8112 -3.84587,2.42966 -4.097941,2.67581 -2.293864,2.23988 -3.046761,6.14391 -1.718759,9.1798 0.323835,0.74031 1.127246,1.81826 2.064474,2.68924 0.937229,0.87098 2.042197,1.54716 2.66237,1.74614 0.523647,0.16803 2.068268,0.36715 3.224607,0.30645 3.35765,-0.17604 5.53027,-1.66102 6.90242,-4.71858 0.46084,-1.02689 0.61252,-1.43382 0.76326,-2.59002 0.14911,-1.1437 0.22621,-3.00892 0.29921,-6.27507 0.0346,-1.54994 0.77318,-3.02946 1.91203,-4.14497 1.11095,-1.08819 2.54584,-1.94909 4.42764,-2.89026 2.84609,-1.42345 4.58965,-3.10578 5.48442,-4.87309 0.89803,-1.77374 1.06743,-3.7068 0.33021,-6.18928 -0.60372,-2.03292 -1.97994,-3.56879 -5.5609,-5.418278 -1.9553,-1.009872 -3.45041,-1.941952 -4.59766,-3.070097 -1.16978,-1.150301 -1.95984,-2.64351 -1.99574,-4.250387 -0.0778,-3.478115 -0.15362,-5.367645 -0.30902,-6.45697 -0.15779,-1.106115 -0.30774,-1.424099 -0.87282,-2.571936 -0.70256,-1.427107 -1.27784,-2.134721 -2.15026,-2.800862 -1.43812,-1.098101 -2.95243,-1.641171 -4.44159,-1.767851 -0.18621,-0.01584 -0.37213,-0.02466 -0.557584,-0.02739 z" /><path
         id="path392"
         style="fill:#ffffff;stroke:none;stroke-width:4;stroke-linecap:round"
         d="m 86.981236,98.286903 c -4.856207,0 -8.749853,3.893627 -8.749853,8.749857 0,4.85622 3.893646,8.75037 8.749853,8.75037 4.856208,0 8.749854,-3.89415 8.749854,-8.75037 0,-4.85623 -3.893646,-8.749857 -8.749854,-8.749857 z" /><path
         id="path392-1"
         style="fill:#ffffff;stroke:none;stroke-width:4;stroke-linecap:round"
         d="m 138.41479,98.286903 c -4.85622,0 -8.74985,3.893627 -8.74985,8.749857 0,4.85622 3.89363,8.75037 8.74985,8.75037 4.8562,0 8.74985,-3.89415 8.74985,-8.75037 0,-4.85623 -3.89365,-8.749857 -8.74985,-8.749857 z" /><path
         id="path392-7-4"
         style="fill:#ffffff;stroke:none;stroke-width:4;stroke-linecap:round"
         d="m 125.59232,77.456649 c -4.85621,0 -8.74986,3.894148 -8.74986,8.750371 0,4.856223 3.89365,8.749853 8.74986,8.749853 4.8562,0 8.75037,-3.89363 8.75037,-8.749853 0,-4.856223 -3.89417,-8.750371 -8.75037,-8.750371 z" /><path
         id="path392-7-4-1"
         style="fill:#ffffff;stroke:none;stroke-width:4;stroke-linecap:round"
         d="m 125.59232,119.11922 c -4.85621,0 -8.74986,3.89363 -8.74986,8.74986 0,4.85621 3.89365,8.74985 8.74986,8.74985 4.8562,0 8.75037,-3.89364 8.75037,-8.74985 0,-4.85623 -3.89417,-8.74986 -8.75037,-8.74986 z" /></g></g></svg>
